<svg xmlns="http://www.w3.org/2000/svg" xmlns:xlink="http://www.w3.org/1999/xlink" width="885.587" height="762.892" xmlns:v="https://vecta.io/nano"><style><![CDATA[.B{fill:#6c63ff}.C{fill:#3f3d56}.D{fill:#ffb9b9}]]></style><path d="M219.742 245.024s-94.716 32.622-112.88 62.735 112.88-62.735 112.88-62.735z" class="B"/><path d="M56.091 349.443c-1.333.099-2.644-.384-3.593-1.326-2.947-2.654-.538-7.672 1.528-11.217 27.71-47.501 167.04-97.558 172.956-99.666l12.742-4.538-10.91 7.993c-.403.296-40.936 29.965-82.43 57.917-64.509 43.458-83.662 50.837-90.292 50.837zm158.508-103.33c-36.585 14.161-135.179 55.096-157.158 92.778-2.927 5.017-2.308 6.277-2.3 6.288.592.639 8.08 4.649 88.551-49.525 28.052-18.885 55.727-38.606 70.906-49.541z" class="C"/><path d="M217.689 212.44s-87.284-8.972-113.763 6.36 113.763-6.36 113.763-6.36z" class="B"/><path d="M98.748 227.105c-30.553 0-32.65-4.898-33.611-7.137-1.92-4.481 3.423-8.7 5.179-10.086 37.886-29.912 152.959.316 157.839 1.617l9.359 2.496-9.589 1.369c-.386.055-38.941 5.539-77.849 8.972-22.691 2.002-39.238 2.769-51.328 2.769zm26.774-26.359c-21.52 0-41.207 3.117-52.756 12.236-3.485 2.751-4.35 4.607-3.996 5.427.886 2.065 9.34 8.309 80.958 1.99 26.688-2.355 53.207-5.677 67.292-7.54-18.046-4.154-57.113-12.113-91.498-12.113z" class="C"/><path d="M242.668 197.068S198.764 91.65 209.402 81.215s33.266 115.853 33.266 115.853z" class="B"/><path d="M245.096 206.341l-5.459-13.949c-.133-.342-13.49-34.558-24.497-69.784-22.672-72.549-13.379-78.744-10.326-80.78a5.14 5.14 0 0 1 5.247-.443c17.124 7.979 31.768 135.549 33.382 150.069zM207.82 44.82c-.295.014-.579.118-.814.296-10.91 7.274 11.208 78.888 30.651 131.011-6.669-53.746-18.95-126.353-29.266-131.161a1.34 1.34 0 0 0-.571-.147z" class="C"/><path d="M259.262 220.249s23.564-106.554 48.251-106.554-48.251 106.554-48.251 106.554z" class="B"/><path d="M253.044 227.602l2.331-8.773c1.712-6.434 42.399-157.573 86.878-157.573 6.098 0 8.728 2.861 9.863 5.26 11.86 25.118-82.506 140.95-93.304 154.075zm89.209-162.394c-35.502 0-70.793 112.209-80.47 145.466 31.842-39.561 95.309-124.36 86.759-142.47-.351-.741-1.414-2.996-6.289-2.996z" class="C"/><path d="M273.094 221.312s81.016-51.196 247-35.568-247 35.568-247 35.568z" class="B"/><path d="M267.567 223.447l4.241-3.636c.859-.736 21.512-18.194 62.894-32.234 38.08-12.922 101.559-25.095 187.714-9.707 36.4 6.5 41.126 11.344 40.809 15.609-.313 4.214-1.046 14.085-146.479 23.235-71.068 4.471-142.88 6.551-143.598 6.572zm176.659-48.811c-93.582 0-148.908 33.251-164.95 44.508l137.232-6.374c135.14-8.503 142.644-17.804 142.776-19.582.015-.19-.085-4.734-37.561-11.427-25.571-4.657-51.505-7.041-77.496-7.125z" class="C"/><path d="M324.47 227.316s141.911-1.894 149.884 13.259-149.884-13.259-149.884-13.259z" class="B"/><path d="M492.526 266.036c-45.298 0-154.178-32.526-168.63-36.905l-11.842-3.588 12.371-.278c18.153-.406 177.641-3.06 187.674 29.05 1.189 3.803-.189 6.244-1.555 7.621-2.856 2.88-9.245 4.101-18.017 4.101zm-155.112-37.001c66.565 19.509 158.993 41.552 170.324 30.118.614-.619 1.235-1.595.59-3.66-7.128-22.812-115.905-26.831-170.914-26.458z" class="C"/><path d="M296.806 243.048s85.715 39.618 68.966 51.808-68.966-51.808-68.966-51.808z" class="B"/><path d="M419.179 342.789c-41.463 0-125.887-99.73-129.814-104.397l-5.558-6.606 7.879 3.531c5.749 2.577 140.829 63.466 143.785 93.964.392 4.045-1.384 7.582-5.133 10.229a18.88 18.88 0 0 1-11.159 3.279zm-120.97-100.154c32.6 37.402 105.133 111.099 129.849 93.647 2.632-1.857 3.738-3.961 3.481-6.62-2.127-21.928-90.398-67.144-133.33-87.027z" class="C"/><path d="M439.078 290.472s71.136 29.64 55.328 49.4-55.328-49.4-55.328-49.4zM306.686 266.76s148.2 162.032 134.368 171.912S306.686 266.76 306.686 266.76zm-27.664-11.856s62.396 103.92 49.662 114.023-49.662-114.023-49.662-114.023z" class="B"/><path d="M349.646 407.855a7.31 7.31 0 0 1-2.289-.384c-22.875-7.514-68.979-142.497-74.16-157.864l-4.608-13.666 8.114 11.924c.241.356 24.494 36.052 46.015 72.982 39.786 68.269 36.488 81.694 30.547 85.853a6.22 6.22 0 0 1-3.62 1.156zm-67.678-144.954c16.817 47.739 50.674 135.577 66.622 140.817.794.335 1.704.238 2.41-.257 3.265-2.285 6.713-14.715-31.687-80.61-13.624-23.378-28.351-46.268-37.345-59.951z" class="C"/><path d="M252.625 250.952s-56.157 165.703-21.697 163.995 21.697-163.995 21.697-163.995z" class="B"/><path d="M216.949 442.64c-6.048 0-10.698-2.364-13.832-7.034-22.232-33.135 43.626-179.265 46.44-185.47l3.005-6.622.76 7.231c.623 5.917 14.886 145.366-17.423 182.62-5.108 5.887-11.184 9.002-18.06 9.257-.299.012-.596.017-.89.017zm33.137-183.908c-13.02 29.937-62.072 147.271-43.686 174.672 2.505 3.736 6.198 5.467 11.293 5.27 5.82-.216 10.799-2.8 15.221-7.898 27.008-31.141 19.712-141.956 17.172-172.044z" class="C"/><path d="M233.229 259.189s-94.265 107.815-85.638 119.171 85.638-119.171 85.638-119.171z" class="B"/><path d="M119.232 417.664a5.52 5.52 0 0 1-3.456-1.144c-1.359-1.105-2.176-2.742-2.242-4.492-2.368-26.784 123.11-166.35 128.452-172.278l12.632-14.015-9.454 16.328c-4.029 6.958-98.958 170.476-124.521 175.459a7.39 7.39 0 0 1-1.411.143zm112.36-160.291C190.019 304.589 115.826 393.085 117.47 411.68c-.029.655.24 1.288.733 1.721.493.337 1.115.426 1.683.241 17.666-3.443 79.38-101.866 111.706-156.269z" class="C"/><path d="M204.936 186.589S122.753 89.512 46.757 98.92s158.179 87.668 158.179 87.668z" class="B"/><path d="M215.89 191.125l-6.468-1.478c-.519-.119-52.461-12.032-103.813-27.229C.452 131.299.112 116.989.002 112.288c-.135-5.673 5.64-10.061 17.657-13.415 44.593-12.447 94.945 12.071 129.32 34.837a430 430 0 0 1 64.305 52.639zM43.179 99.446c-8.262-.042-16.491 1.046-24.459 3.233-9.606 2.68-14.849 6.059-14.768 9.514.45 18.972 117.068 52.802 199.539 72.028-19.496-18.702-93.15-84.775-160.313-84.775z" class="C"/><path d="M140.702 179.816s-108.68-7.904-100.776 11.856 100.776-11.856 100.776-11.856zm27.664-73.112s-5.928-27.664-15.808-21.736 15.808 21.736 15.808 21.736zm100.116 19.574s27.115-113.939 14.826-114.357-14.826 114.357-14.826 114.357z" class="B"/><path d="M263.436 151.505l-.222-15.132c-.071-4.86-1.578-119.207 13.288-134.296A6.24 6.24 0 0 1 280.998 0a5.26 5.26 0 0 1 4.234 2.168c11.439 14.652-15.065 122.416-18.126 134.656zM280.998 3.952c-.197 0-.795 0-1.681.899-9.818 9.965-12.097 76.256-12.23 115.243 10.883-46.455 21.975-106.6 15.03-115.494-.236-.395-.659-.64-1.119-.648z" class="C"/><path d="M393.63 142.272s11.856-29.64 23.712-21.736-23.712 21.736-23.712 21.736zM280.998 405.08S265.19 521.664 294.83 519.688 280.998 405.08 280.998 405.08z" class="B"/><path d="M363.688 378.567s-15.146-25.243-15.146-42.913c0 0-26.505-27.767-18.932-35.34s23.981 21.457 23.981 21.457-30.292-34.078-21.457-39.127 37.865 32.816 37.865 32.816l10.097-5.049s-21.447-52.897-6.311-54.273c6.942-.631 22.719 50.486 22.719 50.486l16.408 41.651s6.311 15.146 3.786 23.981a166.57 166.57 0 0 0-3.786 16.408z" class="D"/><use xlink:href="#B" opacity=".1"/><use xlink:href="#B" x="5.049" class="D"/><path d="M373.154 314.828l-6.942-10.728s-32.816-5.049-29.029 6.311 18.932 6.311 18.932 6.311l8.835 8.835z" opacity=".1"/><path d="M378.833 314.197l-10.097-13.884s-32.816-5.049-29.029 6.311 18.932 6.311 18.932 6.311l8.835 8.835zm234.13 165.973l-6.311 50.486 98.448 6.311v-60.583l-92.137 3.786z" class="D"/><path d="M885.587 762.892l-79.838-159.677c-4.77-15.794-19.664-41.517-65.94-58.045L705.1 515.809l-25.874-.929-103.496-15.146s-79.516-5.049-131.264 26.505l-13.884-6.311s-22.719-80.778-12.622-138.837l-58.059-5.049s-31.554 137.575-16.408 179.226 70.681 71.943 70.681 71.943l49.224 49.224 18.932 85.826h295.344l4.7-22.519 23.068 22.519zM773.959 476.39c-92.988 25.11-184.381 26.885-273.844.387-10.516-3.115-17.706-12.348-17.706-22.828V192.613c0-11.693 8.898-21.668 21.023-23.57 84.393-13.235 173.797-12.21 267.305.494 12.355 1.679 21.527 11.768 21.527 23.644v260.215c0 10.7-7.488 20.073-18.305 22.994z" fill="#cfcce0"/><path d="M582.19 297.559s-21.388-31.259-8.226-39.485 32.904 14.807 32.904 14.807 24.678-21.388 37.84-13.162-13.162 37.84-13.162 37.84 19.742 4.936 21.388 18.097 8.226 47.711-19.742 49.356c-14.983.881-23.356-3.431-27.901-7.625a9.17 9.17 0 0 0-12.077-.143c-9.484 7.99-26.565 17.201-38.992-5.393-4.936-34.549 27.968-54.292 27.968-54.292zm157.94 3.29s21.388-31.259 8.226-39.485-32.904 14.807-32.904 14.807-24.678-21.388-37.84-13.162 13.162 37.84 13.162 37.84-19.742 4.936-21.388 18.097-8.226 47.711 19.742 49.356c14.983.881 23.356-3.431 27.901-7.625a9.17 9.17 0 0 1 12.077-.143c9.484 7.99 26.565 17.201 38.992-5.393 4.936-34.549-27.969-54.292-27.969-54.292zm-183.905 85.432s30.862 24.847 96.672 23.281 87.092-4.253 101.159-19.764 18.236 2.404 13.868 14.147-9.978 31.783-42.763 35.032c-21.583 2.138-68.233 2.645-97.59 2.742a150.03 150.03 0 0 1-65.967-14.675q-.408-.198-.814-.398a37.35 37.35 0 0 1-20.809-33.474c.003-5.534.977-8.525 4.579-9.615 6.493-1.964 11.663 2.725 11.663 2.725zm94.406 113.839a498.47 498.47 0 0 1-148.341-22.503 28.98 28.98 0 0 1-20.491-27.768V143.692a28.96 28.96 0 0 1 24.333-28.671c90.637-14.939 190.999-14.745 298.296.576 14.274 2.108 24.865 14.332 24.918 28.761v304.844c-.053 12.998-8.687 24.398-21.185 27.97-52.542 14.911-104.486 22.629-154.39 22.939l-3.141.009zm-3.497-394.015a865.24 865.24 0 0 0-140.653 11.033c-13.019 2.106-22.575 13.365-22.537 26.554v306.157a26.84 26.84 0 0 0 18.983 25.719c95.892 29.851 198.389 29.696 304.647-.46l.293 1.032-.293-1.032a27.06 27.06 0 0 0 19.627-25.907V144.357a27.03 27.03 0 0 0-23.076-26.637 1112.36 1112.36 0 0 0-156.991-11.615zm-6.59 45.394c-23.634 0-43.859-1.06-60.419-2.497-52.083-4.517-80.149-13.635-80.427-13.726l.673-2.037c.276.091 28.172 9.145 80.04 13.635 47.872 4.146 126.54 5.138 229.435-13.672l.385 2.111c-67.599 12.357-124.785 16.186-169.687 16.186z" class="C"/><defs ><path id="B" d="M402.814 384.878s8.835-13.884 5.638-35.083-20.783-33.073-20.783-33.073-11.359 8.835 0 31.554c0 0-13.884 12.622-2.524 32.816"/></defs></svg>